<?xml version="1.0" encoding="iso-8859-1"?>
<!-- Uploaded to: SVG Repo, www.svgrepo.com, Generator: SVG Repo Mixer Tools -->
<svg version="1.1" id="Layer_1" xmlns="http://www.w3.org/2000/svg" xmlns:xlink="http://www.w3.org/1999/xlink" 
	 viewBox="0 0 512 512" xml:space="preserve">
<path style="fill:#E0A88F;" d="M207.14,291.899l-0.44,36.636c0,0,15.93,20.746,44.826,20.746c34.824,0,54.952-20.746,54.952-20.746
	l0.51-37.936L207.14,291.899z"/>
<path style="fill:#D49481;" d="M249.278,317.691c5.347,3.431,13.967,8.046,25.444,10.552c13.65,2.98,25.095,1.61,31.756,0.292
	c0.17-12.645,0.34-25.291,0.51-37.936L249.278,317.691z"/>
<path style="fill:#F2C6A0;" d="M332.838,209.684c0,59.65-34.137,108.064-76.248,108.007c-42.133-0.057-76.291-48.471-76.248-108.007
	c0.043-59.65,34.137-108.007,76.248-108.007S332.838,150.034,332.838,209.684z"/>
<rect x="226.884" y="236.392" style="fill:#58595B;" width="0.007" height="0.007"/>
<path style="fill:#ED4850;" d="M257.109,292.787c-4.897,0-9.717-1.028-14.332-3.058c-4.436-1.95-6.449-7.128-4.499-11.564
	c1.95-4.436,7.128-6.453,11.564-4.499c2.439,1.072,4.938,1.556,7.474,1.572c2.149-0.026,4.29-0.457,6.362-1.283
	c4.5-1.796,9.604,0.4,11.399,4.902c1.795,4.502-0.4,9.604-4.902,11.398c-4.082,1.627-8.337,2.478-12.651,2.528
	C257.386,292.786,257.248,292.787,257.109,292.787z"/>
<path style="fill:#F1F2F2;" d="M457.135,459.532L457.135,459.532v31.942c0,0-11.59,11.855-16.712,11.855
	c-5.123,0-11.59-11.855-16.712-11.855c-5.123,0-11.59,11.855-16.712,11.855s-11.59-11.855-16.712-11.855
	c-5.123,0-11.59,11.855-16.712,11.855c-5.123,0-11.59-11.855-16.712-11.855c-5.123,0-11.59,11.855-16.712,11.855
	c-5.123,0-11.59-11.855-16.712-11.855s-11.59,11.855-16.712,11.855c-5.123,0-11.59-11.855-16.712-11.855
	s-11.59,11.855-16.712,11.855c-5.123,0-11.59-11.855-16.712-11.855c-5.123,0-11.59,11.855-16.712,11.855
	s-11.59-11.855-16.712-11.855c-5.123,0-11.59,11.855-16.712,11.855s-11.59-11.855-16.712-11.855
	c-5.123,0-11.59,11.855-16.712,11.855c-5.123,0-11.59-11.855-16.712-11.855s-11.59,11.855-16.712,11.855
	s-11.59-11.855-16.712-11.855s-11.59,11.855-16.712,11.855c-5.123,0-11.59-11.855-16.712-11.855
	c-5.123,0-11.59,11.855-16.712,11.855s-16.712-11.855-16.712-11.855v-31.942l0,0c0-54.4,36.981-101.837,89.737-115.109l60.918-16.94
	c0,0,16.301,20.746,46.061,20.746c32.971,0,53.718-20.746,53.718-20.746l63.323,15.589c51.575,14.13,87.332,61.002,87.332,114.477
	v1.983H457.135z"/>
<g>
	<path style="fill:#414042;" d="M112.812,183.572h24.748V129.37h-24.748c-3.292,0-5.96,2.668-5.96,5.96v42.281
		C106.85,180.904,109.52,183.572,112.812,183.572z"/>
	<path style="fill:#414042;" d="M377.083,183.572h23.286c3.292,0,5.96-2.668,5.96-5.96v-42.282c0-3.292-2.668-5.96-5.96-5.96
		h-23.286V183.572z"/>
</g>
<path style="fill:#E6B593;" d="M332.838,209.684c0-21.633-4.493-41.777-12.225-58.672H192.586
	c-7.731,16.894-12.228,37.038-12.244,58.672c-0.011,15.042,2.164,29.372,6.097,42.394c24.439-4.898,48.578-13.288,73.451-13.134
	c0.158,0.001,0.315,0.002,0.473,0.004c26.527,0.289,41.238,31.365,24.597,52.026c-10.808,13.419-24.315,22.576-39.221,25.609
	c3.546,0.719,7.168,1.102,10.851,1.108c31.582,0.043,58.68-27.178,70.255-65.956l0,0l0,0
	C330.705,238.809,332.838,224.597,332.838,209.684z"/>
<path style="fill:#58595B;" d="M361.991,229.976l-28.899,1.365c-24.316-4.679-48.187-13.884-72.949-14.038
	c-26.482-0.165-52.132,9.359-78.198,14.038l-30.249-1.365c-8.475,0-15.347-6.872-15.347-15.347V129.37
	c0-66.546,53.947-120.493,120.493-120.493l0,0c66.546,0,120.493,53.947,120.493,120.493v85.259
	C377.339,223.106,370.468,229.976,361.991,229.976z"/>
<path style="fill:#6D6E71;" d="M151.699,229.976l30.249,1.365c26.066-4.679,51.715-14.203,78.198-14.038
	c24.762,0.154,48.633,9.359,72.949,14.038l28.899-1.365c8.477,0,15.347-6.872,15.347-15.347V129.37H136.353v85.259
	C136.352,223.106,143.223,229.976,151.699,229.976z"/>
<g>
	<circle style="fill:#D1D3D4;" cx="173.656" cy="377.521" r="10.116"/>
	<circle style="fill:#D1D3D4;" cx="271.209" cy="377.521" r="10.116"/>
	<circle style="fill:#D1D3D4;" cx="239.167" cy="464.101" r="10.116"/>
	<circle style="fill:#D1D3D4;" cx="133.437" cy="453.982" r="10.116"/>
	<circle style="fill:#D1D3D4;" cx="339.609" cy="397.759" r="10.116"/>
	<circle style="fill:#D1D3D4;" cx="406.7" cy="453.982" r="10.116"/>
	<circle style="fill:#D1D3D4;" cx="329.502" cy="458.626" r="10.116"/>
	<circle style="fill:#D1D3D4;" cx="209.629" cy="423.777" r="10.116"/>
</g>
<rect x="226.299" y="236.298" width="0.007" height="0.007"/>
<path d="M256.524,292.686c0.138,0,0.276-0.001,0.414-0.004c4.313-0.05,8.569-0.902,12.651-2.528
	c4.502-1.793,6.696-6.897,4.902-11.398c-1.793-4.503-6.897-6.698-11.399-4.902c-2.072,0.826-4.211,1.256-6.362,1.283
	c-2.536-0.016-5.035-0.501-7.474-1.572c-4.436-1.954-9.613,0.063-11.564,4.499s0.063,9.614,4.499,11.564
	C246.809,291.658,251.627,292.686,256.524,292.686z"/>
<path d="M371.537,334.509c-0.074-0.021-0.147-0.039-0.221-0.057l-56.551-13.922l0.372-26.878
	c11.073-14.724,19.071-33.453,23.027-53.907l23.219-1.096c13.195-0.124,23.889-10.896,23.889-24.12v-22.283h14.512
	c8.125,0,14.734-6.61,14.734-14.734v-42.283c0-8.123-6.61-14.734-14.734-14.734h-14.816C380.44,53.292,324.334,0,256.005,0
	S131.569,53.292,127.042,120.493h-14.815c-8.125,0-14.734,6.61-14.734,14.734v42.283c0,8.123,6.61,14.734,14.734,14.734h14.512
	v22.283c0,13.227,10.701,24.002,23.9,24.12l30.073,1.357c0.652,0.028,1.304-0.013,1.947-0.129c8.95-1.606,17.868-3.772,26.493-5.866
	c17.239-4.186,33.538-8.13,50.1-8.034c15.43,0.096,30.576,3.973,46.61,8.079c4.861,1.244,9.827,2.5,14.836,3.666
	c-3.703,18.308-10.869,34.253-20.28,46.378c-0.614,0.574-1.145,1.237-1.575,1.966c-11.779,14.276-26.794,22.749-42.835,22.749
	c-15.693,0-30.684-8.183-42.573-22.463c-0.057-0.073-0.12-0.142-0.18-0.212c-6.339-7.667-11.79-17.07-15.98-27.904
	c-1.748-4.52-6.826-6.766-11.349-5.019c-4.519,1.748-6.766,6.828-5.019,11.347c4.44,11.48,10.159,21.637,16.838,30.245l-0.319,25.88
	l-54.476,15.149c-56.686,14.309-96.263,65.116-96.263,123.589v31.944c0,2.293,0.897,4.495,2.5,6.133
	C58.59,507.123,66.323,512,72.173,512c6.254,0,10.704-4.553,14.63-8.568c0.58-0.593,1.352-1.384,2.081-2.085
	c0.73,0.703,1.503,1.492,2.082,2.085c3.926,4.017,8.376,8.568,14.63,8.568s10.703-4.552,14.629-8.568
	c0.58-0.593,1.352-1.383,2.082-2.085c0.73,0.702,1.502,1.492,2.082,2.085c3.926,4.017,8.376,8.568,14.63,8.568
	s10.704-4.553,14.63-8.568c0.58-0.593,1.352-1.384,2.081-2.085c0.73,0.703,1.503,1.492,2.082,2.085
	c3.926,4.017,8.376,8.568,14.63,8.568s10.703-4.552,14.629-8.568c0.58-0.593,1.352-1.384,2.082-2.085
	c0.73,0.702,1.503,1.492,2.082,2.085c3.926,4.017,8.376,8.568,14.629,8.568s10.704-4.553,14.63-8.568
	c0.58-0.593,1.352-1.384,2.081-2.085c0.73,0.703,1.503,1.492,2.082,2.085c3.926,4.017,8.376,8.568,14.63,8.568
	s10.703-4.552,14.629-8.568c0.58-0.593,1.352-1.384,2.082-2.085c0.73,0.702,1.503,1.492,2.082,2.085
	c3.926,4.017,8.376,8.568,14.629,8.568c6.253,0,10.704-4.552,14.63-8.568c0.58-0.593,1.352-1.383,2.082-2.085
	c0.73,0.702,1.502,1.492,2.081,2.085c3.926,4.016,8.377,8.568,14.63,8.568c6.253,0,10.703-4.552,14.629-8.568
	c0.58-0.593,1.352-1.384,2.082-2.085c0.73,0.702,1.503,1.492,2.082,2.085c3.926,4.017,8.376,8.568,14.629,8.568
	c6.253,0,10.704-4.552,14.63-8.568c0.58-0.593,1.352-1.383,2.082-2.085c0.73,0.702,1.502,1.492,2.081,2.085
	c3.926,4.016,8.377,8.568,14.63,8.568c6.254,0,10.704-4.552,14.63-8.568c0.58-0.593,1.352-1.384,2.082-2.085
	c0.73,0.703,1.503,1.492,2.082,2.085c3.926,4.017,8.376,8.568,14.629,8.568c6.253,0,10.704-4.552,14.63-8.568
	c0.58-0.593,1.352-1.383,2.082-2.085c0.73,0.702,1.502,1.492,2.081,2.085c3.926,4.016,8.377,8.568,14.63,8.568
	c5.849,0,13.583-4.877,22.986-14.495c1.603-1.639,2.5-3.841,2.5-6.133v-33.927C465.324,400.191,426.757,349.637,371.537,334.509z
	 M396.97,174.698h-11.698v-36.655h11.698V174.698z M115.039,174.698v-36.655h11.698v36.655L115.039,174.698L115.039,174.698z
	 M259.36,208.429c-18.72-0.103-36.838,4.278-54.348,8.529c-8.056,1.956-16.374,3.975-24.499,5.474l-29.257-1.321
	c-0.132-0.006-0.264-0.009-0.395-0.009c-3.625,0-6.573-2.949-6.573-6.573v-31.057v-45.428h193.023c4.845,0,8.774-3.927,8.774-8.774
	c0-4.847-3.928-8.774-8.774-8.774H144.629c4.49-57.517,52.727-102.946,111.376-102.946c61.603,0,111.72,50.117,111.72,111.72v54.202
	v31.057c0,3.625-2.949,6.573-6.573,6.573c-0.138,0-0.276,0.004-0.414,0.011l-27.722,1.309c-0.332-0.088-0.67-0.163-1.019-0.212
	c-0.075-0.011-0.147-0.012-0.222-0.02c-7.166-1.46-14.472-3.319-21.562-5.133C293.856,212.869,276.945,208.539,259.36,208.429z
	 M256.005,326.363c14.586,0,28.8-5.118,41.33-14.63l-0.16,11.607c-3.817,3.065-11.794,8.673-22.886,12.375
	c-6.479,2.092-14.116,3.566-22.824,3.624c-19.472-0.253-31.987-10.711-36.535-15.289l0.149-11.992
	C227.381,321.283,241.391,326.363,256.005,326.363z M447.776,487.674c-2.688,2.503-5.526,4.807-7.443,6.048
	c-0.859-0.797-1.865-1.825-2.578-2.555c-3.926-4.017-8.376-8.568-14.629-8.568c-6.253,0-10.704,4.552-14.63,8.568
	c-0.58,0.593-1.352,1.383-2.082,2.085c-0.73-0.702-1.502-1.492-2.081-2.085c-3.926-4.017-8.377-8.568-14.63-8.568
	c-6.253,0-10.704,4.552-14.63,8.568c-0.58,0.593-1.352,1.384-2.082,2.085c-0.73-0.703-1.503-1.492-2.082-2.085
	c-3.926-4.017-8.376-8.568-14.629-8.568c-6.253,0-10.704,4.552-14.63,8.568c-0.58,0.593-1.352,1.383-2.082,2.085
	c-0.73-0.702-1.502-1.492-2.081-2.085c-3.926-4.017-8.377-8.568-14.63-8.568c-6.253,0-10.704,4.552-14.63,8.568
	c-0.58,0.593-1.352,1.384-2.081,2.085c-0.73-0.703-1.503-1.492-2.082-2.085c-3.926-4.017-8.376-8.568-14.629-8.568
	c-6.253,0-10.704,4.552-14.63,8.568c-0.58,0.593-1.352,1.383-2.082,2.085c-0.73-0.702-1.502-1.492-2.081-2.085
	c-3.926-4.017-8.377-8.568-14.63-8.568c-6.253,0-10.704,4.552-14.63,8.568c-0.58,0.593-1.352,1.384-2.081,2.085
	c-0.73-0.703-1.503-1.492-2.082-2.085c-3.926-4.017-8.376-8.568-14.63-8.568s-10.703,4.552-14.629,8.568
	c-0.58,0.593-1.352,1.383-2.082,2.085c-0.73-0.702-1.502-1.492-2.081-2.085c-3.926-4.017-8.377-8.568-14.63-8.568
	s-10.704,4.552-14.63,8.568c-0.58,0.593-1.352,1.384-2.081,2.085c-0.73-0.703-1.503-1.492-2.082-2.085
	c-3.926-4.017-8.376-8.568-14.63-8.568s-10.703,4.552-14.629,8.568c-0.58,0.593-1.352,1.383-2.082,2.085
	c-0.73-0.702-1.502-1.492-2.082-2.085c-3.926-4.017-8.376-8.568-14.63-8.568c-6.254,0-10.704,4.552-14.63,8.568
	c-0.58,0.593-1.352,1.384-2.081,2.085c-0.73-0.703-1.503-1.492-2.082-2.085c-3.926-4.017-8.376-8.568-14.63-8.568
	s-10.703,4.552-14.629,8.568c-0.714,0.729-1.718,1.757-2.577,2.554c-1.913-1.242-4.751-3.546-7.444-6.05V459.43
	c0-50.455,34.173-94.291,83.104-106.599c0.07-0.019,0.14-0.036,0.211-0.056l55.762-15.506c7.161,7.016,23.401,19.631,47.632,19.631
	c0.193,0,0.38-0.009,0.573-0.011c0.221,0.002,0.439,0.011,0.662,0.011c14.623,0,27.05-3.653,36.739-8.068
	c0.146-0.066,0.292-0.131,0.438-0.198c0.117-0.054,0.232-0.109,0.349-0.163c8.585-3.952,14.855-8.438,18.564-11.471l58.74,14.462
	c47.562,13.081,80.769,56.647,80.769,105.985v30.229H447.776z"/>
</svg>